<svg width="200" height="192" viewBox="0 0 200 192" fill="none" xmlns="http://www.w3.org/2000/svg">
<g id="Group 8">
<rect id="Rectangle" x="100" y="92" width="100" height="100" transform="rotate(180 100 92)" fill="#2C6269"/>
<path id="Combined Shape Copy" fill-rule="evenodd" clip-rule="evenodd" d="M100 192C155.228 192 200 147.228 200 92C200 36.7715 155.228 -8 100 -8C44.7715 -8 0 36.7715 0 92C0 147.228 44.7715 192 100 192ZM100 125C118.225 125 133 110.225 133 92C133 73.7746 118.225 59 100 59C81.7746 59 67 73.7746 67 92C67 110.225 81.7746 125 100 125Z" fill="#014E56"/>
<path id="Combined Shape" fill-rule="evenodd" clip-rule="evenodd" d="M100 92H0V96H100V92ZM100 100H0V104H100V100ZM0 108H100V112H0V108ZM100 116H0V120H100V116ZM0 124H100V128H0V124ZM100 132H0V136H100V132Z" fill="#79C8C7"/>
<path id="Combined Shape_2" fill-rule="evenodd" clip-rule="evenodd" d="M0 -8H4V-4H0V-8ZM11 -8H7V-4H11V-8ZM11 0H7V4H11V0ZM7 8H11V12H7V8ZM11 16H7V20H11V16ZM7 24H11V28H7V24ZM11 32H7V36H11V32ZM14 -8H18V-4H14V-8ZM14 0H18V4H14V0ZM18 8H14V12H18V8ZM14 16H18V20H14V16ZM18 24H14V28H18V24ZM14 32H18V36H14V32ZM0 0H4V4H0V0ZM21 -8H25V-4H21V-8ZM21 0H25V4H21V0ZM25 8H21V12H25V8ZM21 16H25V20H21V16ZM25 24H21V28H25V24ZM21 32H25V36H21V32ZM0 8H4V12H0V8ZM28 -8H32V-4H28V-8ZM28 0H32V4H28V0ZM32 8H28V12H32V8ZM28 16H32V20H28V16ZM32 24H28V28H32V24ZM28 32H32V36H28V32ZM0 16H4V20H0V16ZM35 -8H39V-4H35V-8ZM35 0H39V4H35V0ZM39 8H35V12H39V8ZM35 16H39V20H35V16ZM39 24H35V28H39V24ZM35 32H39V36H35V32ZM0 24H4V28H0V24ZM42 -8H46V-4H42V-8ZM42 0H46V4H42V0ZM46 8H42V12H46V8ZM42 16H46V20H42V16ZM46 24H42V28H46V24ZM42 32H46V36H42V32ZM0 32H4V36H0V32ZM49 -8H53V-4H49V-8ZM49 0H53V4H49V0ZM53 8H49V12H53V8ZM49 16H53V20H49V16ZM53 24H49V28H53V24ZM49 32H53V36H49V32Z" fill="#79C8C7"/>
</g>
</svg>
